<svg xmlns="http://www.w3.org/2000/svg" xmlns:xlink="http://www.w3.org/1999/xlink" width="500" zoomAndPan="magnify" viewBox="0 0 375 374.999991" height="500" preserveAspectRatio="xMidYMid meet" version="1.0"><path fill="#000000" d="M 167.890625 119.941406 C 215.441406 119.941406 251.292969 101.945312 251.292969 78.082031 C 250.082031 22.574219 85.671875 22.601562 84.492188 78.082031 C 84.492188 101.945312 120.34375 119.941406 167.890625 119.941406 Z M 167.890625 49.136719 C 209.421875 49.136719 238.359375 64.390625 238.359375 78.082031 C 238.359375 91.769531 209.421875 107.023438 167.890625 107.023438 C 126.363281 107.023438 97.425781 91.769531 97.425781 78.082031 C 97.425781 64.390625 126.363281 49.136719 167.890625 49.136719 Z M 167.890625 49.136719 " fill-opacity="1" fill-rule="nonzero"/><path fill="#000000" d="M 348.03125 116.230469 C 342.535156 79.949219 318.941406 55.605469 298.050781 40.742188 C 237.585938 -12.511719 22.605469 -5.714844 16.316406 78.082031 C 16.359375 78.289062 16.238281 178.90625 16.359375 179.078125 C 16.578125 211.75 61.644531 239.417969 126.304688 247.996094 C 111.226562 258.171875 95.964844 268.203125 80.929688 277.855469 C 80.246094 278.296875 79.59375 278.773438 78.96875 279.289062 C 78.34375 279.808594 77.75 280.359375 77.191406 280.945312 C 76.632812 281.535156 76.113281 282.152344 75.628906 282.804688 C 75.144531 283.453125 74.699219 284.128906 74.296875 284.832031 C 73.890625 285.535156 73.53125 286.261719 73.214844 287.007812 C 72.898438 287.753906 72.628906 288.515625 72.402344 289.292969 C 72.179688 290.074219 72 290.863281 71.871094 291.660156 C 71.742188 292.460938 71.660156 293.265625 71.625 294.074219 C 71.589844 294.886719 71.605469 295.695312 71.667969 296.503906 C 71.730469 297.308594 71.84375 298.113281 72.003906 298.90625 C 72.164062 299.699219 72.367188 300.484375 72.621094 301.253906 C 72.875 302.023438 73.171875 302.773438 73.515625 303.507812 C 73.859375 304.242188 74.246094 304.953125 74.675781 305.644531 C 75.105469 306.332031 75.570312 306.992188 76.078125 307.621094 C 76.585938 308.253906 77.132812 308.855469 77.710938 309.421875 C 78.292969 309.988281 78.902344 310.519531 79.546875 311.011719 L 148.085938 363.742188 C 148.964844 364.417969 149.890625 365.015625 150.867188 365.535156 C 151.84375 366.058594 152.855469 366.5 153.902344 366.859375 C 154.949219 367.214844 156.019531 367.488281 157.109375 367.671875 C 158.203125 367.855469 159.300781 367.949219 160.410156 367.957031 C 161.515625 367.960938 162.617188 367.878906 163.710938 367.703125 C 164.804688 367.53125 165.875 367.273438 166.925781 366.925781 C 167.976562 366.578125 168.992188 366.148438 169.972656 365.632812 C 170.957031 365.121094 171.886719 364.535156 172.773438 363.871094 C 299.492188 268.414062 358.457031 185.097656 348.03125 116.230469 Z M 167.890625 19.148438 C 183.589844 18.949219 199.179688 20.140625 214.664062 22.714844 C 230.152344 25.292969 245.285156 29.21875 260.070312 34.492188 C 272.160156 39.523438 283.417969 46 293.839844 53.917969 C 311.640625 69.484375 310.171875 89.390625 291.714844 104.109375 C 268.652344 123.417969 221.222656 137.011719 167.890625 137.011719 C 92.738281 137.011719 29.25 110.027344 29.25 78.082031 C 29.25 46.140625 92.738281 19.148438 167.890625 19.148438 Z M 29.269531 178.839844 C 29.203125 178.757812 29.277344 107.683594 29.25 107.585938 C 52.582031 132.757812 105.210938 149.929688 167.890625 149.929688 C 210.949219 149.929688 249.261719 141.820312 276.605469 128.59375 C 253.121094 156.34375 200.75 196.808594 143.222656 236.453125 L 143.222656 195.414062 C 143.222656 194.992188 143.183594 194.570312 143.101562 194.152344 C 143.015625 193.738281 142.894531 193.335938 142.730469 192.941406 C 142.570312 192.550781 142.371094 192.179688 142.132812 191.824219 C 141.898438 191.472656 141.628906 191.148438 141.328125 190.847656 C 141.03125 190.546875 140.703125 190.277344 140.351562 190.042969 C 139.996094 189.808594 139.625 189.609375 139.230469 189.445312 C 138.839844 189.285156 138.433594 189.160156 138.019531 189.078125 C 137.601562 188.996094 137.179688 188.953125 136.757812 188.953125 C 136.332031 188.953125 135.910156 188.996094 135.496094 189.078125 C 135.078125 189.160156 134.675781 189.285156 134.28125 189.445312 C 133.890625 189.609375 133.515625 189.808594 133.164062 190.042969 C 132.8125 190.277344 132.484375 190.546875 132.183594 190.847656 C 131.882812 191.148438 131.617188 191.472656 131.378906 191.824219 C 131.144531 192.179688 130.945312 192.550781 130.78125 192.941406 C 130.621094 193.335938 130.496094 193.738281 130.414062 194.152344 C 130.332031 194.570312 130.289062 194.992188 130.289062 195.414062 L 130.289062 235.542969 C 121.222656 234.4375 112.238281 232.871094 103.335938 230.839844 L 103.335938 188.550781 C 103.335938 188.128906 103.292969 187.707031 103.210938 187.292969 C 103.128906 186.875 103.007812 186.472656 102.84375 186.078125 C 102.679688 185.6875 102.480469 185.316406 102.246094 184.960938 C 102.011719 184.609375 101.742188 184.285156 101.441406 183.984375 C 101.140625 183.683594 100.816406 183.417969 100.460938 183.179688 C 100.109375 182.945312 99.734375 182.746094 99.34375 182.582031 C 98.953125 182.421875 98.546875 182.296875 98.128906 182.214844 C 97.714844 182.132812 97.292969 182.09375 96.867188 182.09375 C 96.445312 182.09375 96.023438 182.132812 95.605469 182.214844 C 95.191406 182.296875 94.785156 182.421875 94.394531 182.582031 C 94 182.746094 93.628906 182.945312 93.277344 183.179688 C 92.921875 183.417969 92.597656 183.683594 92.296875 183.984375 C 91.996094 184.285156 91.726562 184.609375 91.492188 184.960938 C 91.257812 185.316406 91.058594 185.6875 90.894531 186.078125 C 90.730469 186.472656 90.609375 186.875 90.527344 187.292969 C 90.445312 187.707031 90.402344 188.128906 90.402344 188.550781 L 90.402344 227.507812 C 81.121094 224.859375 72.132812 221.4375 63.441406 217.242188 L 63.441406 172.210938 C 63.4375 171.789062 63.390625 171.375 63.300781 170.964844 C 63.214844 170.550781 63.089844 170.152344 62.921875 169.765625 C 62.757812 169.378906 62.558594 169.011719 62.320312 168.664062 C 62.082031 168.316406 61.816406 167.996094 61.515625 167.703125 C 61.214844 167.40625 60.890625 167.144531 60.539062 166.910156 C 60.1875 166.679688 59.816406 166.484375 59.429688 166.324219 C 59.039062 166.164062 58.636719 166.046875 58.226562 165.964844 C 57.8125 165.882812 57.394531 165.84375 56.972656 165.84375 C 56.554688 165.84375 56.136719 165.882812 55.722656 165.964844 C 55.3125 166.046875 54.910156 166.164062 54.519531 166.324219 C 54.132812 166.484375 53.761719 166.679688 53.410156 166.910156 C 53.058594 167.144531 52.734375 167.40625 52.433594 167.703125 C 52.132812 167.996094 51.867188 168.316406 51.628906 168.664062 C 51.390625 169.011719 51.191406 169.378906 51.027344 169.765625 C 50.859375 170.152344 50.734375 170.550781 50.648438 170.964844 C 50.558594 171.375 50.515625 171.789062 50.507812 172.210938 L 50.507812 209.761719 C 37.09375 200.652344 29.269531 190.019531 29.269531 178.839844 Z M 164.980469 353.554688 C 164.332031 354.042969 163.621094 354.414062 162.847656 354.671875 C 162.078125 354.925781 161.285156 355.050781 160.472656 355.046875 C 159.660156 355.042969 158.871094 354.910156 158.101562 354.644531 C 157.332031 354.382812 156.625 354.003906 155.980469 353.507812 L 87.441406 300.777344 C 87.207031 300.597656 86.988281 300.402344 86.777344 300.195312 C 86.570312 299.988281 86.371094 299.773438 86.1875 299.542969 C 86.007812 299.3125 85.835938 299.070312 85.683594 298.820312 C 85.527344 298.570312 85.386719 298.3125 85.265625 298.046875 C 85.140625 297.78125 85.03125 297.507812 84.941406 297.230469 C 84.851562 296.949219 84.773438 296.664062 84.71875 296.378906 C 84.660156 296.089844 84.621094 295.800781 84.597656 295.507812 C 84.574219 295.214844 84.566406 294.917969 84.578125 294.625 C 84.589844 294.332031 84.621094 294.039062 84.667969 293.75 C 84.714844 293.460938 84.777344 293.175781 84.859375 292.890625 C 84.9375 292.609375 85.035156 292.332031 85.148438 292.0625 C 85.261719 291.789062 85.394531 291.527344 85.539062 291.269531 C 85.683594 291.015625 85.84375 290.769531 86.015625 290.53125 C 86.191406 290.296875 86.378906 290.070312 86.582031 289.855469 C 86.78125 289.640625 86.996094 289.441406 87.21875 289.25 C 87.445312 289.0625 87.679688 288.886719 87.925781 288.726562 C 94.746094 284.347656 102 279.644531 109.546875 274.695312 L 185.140625 337.992188 C 178.617188 343.148438 171.898438 348.335938 164.980469 353.554688 Z M 299.191406 225.066406 L 284.480469 210.949219 C 284.171875 210.660156 283.839844 210.398438 283.484375 210.171875 C 283.125 209.945312 282.75 209.753906 282.355469 209.601562 C 281.960938 209.449219 281.554688 209.335938 281.136719 209.261719 C 280.71875 209.1875 280.296875 209.15625 279.875 209.164062 C 279.449219 209.171875 279.03125 209.222656 278.617188 209.316406 C 278.203125 209.40625 277.804688 209.539062 277.414062 209.707031 C 277.027344 209.878906 276.660156 210.085938 276.3125 210.328125 C 275.964844 210.570312 275.644531 210.84375 275.351562 211.148438 C 275.054688 211.453125 274.796875 211.785156 274.566406 212.140625 C 274.339844 212.496094 274.148438 212.875 273.992188 213.265625 C 273.839844 213.660156 273.722656 214.066406 273.648438 214.484375 C 273.574219 214.902344 273.542969 215.320312 273.550781 215.742188 C 273.558594 216.167969 273.605469 216.585938 273.699219 217 C 273.789062 217.414062 273.917969 217.8125 274.085938 218.203125 C 274.257812 218.589844 274.460938 218.957031 274.703125 219.304688 C 274.945312 219.652344 275.21875 219.972656 275.523438 220.269531 L 291.351562 235.453125 C 284.96875 243.621094 277.914062 251.933594 270.191406 260.378906 L 248.886719 243.199219 C 248.554688 242.941406 248.203125 242.71875 247.828125 242.53125 C 247.453125 242.34375 247.0625 242.191406 246.660156 242.078125 C 246.253906 241.964844 245.84375 241.894531 245.425781 241.859375 C 245.007812 241.828125 244.589844 241.835938 244.175781 241.882812 C 243.757812 241.933594 243.351562 242.019531 242.949219 242.148438 C 242.550781 242.277344 242.167969 242.441406 241.800781 242.644531 C 241.433594 242.847656 241.089844 243.082031 240.769531 243.351562 C 240.445312 243.621094 240.152344 243.917969 239.890625 244.242188 C 239.628906 244.570312 239.398438 244.917969 239.203125 245.289062 C 239.007812 245.660156 238.847656 246.042969 238.726562 246.445312 C 238.609375 246.847656 238.527344 247.253906 238.488281 247.671875 C 238.445312 248.089844 238.445312 248.507812 238.484375 248.921875 C 238.527344 249.339844 238.605469 249.75 238.726562 250.152344 C 238.847656 250.550781 239.003906 250.9375 239.199219 251.308594 C 239.394531 251.679688 239.625 252.027344 239.886719 252.355469 C 240.152344 252.679688 240.445312 252.976562 240.765625 253.246094 L 261.332031 269.835938 C 253.652344 277.828125 245.394531 285.925781 236.558594 294.136719 L 215.832031 273.433594 C 215.527344 273.144531 215.203125 272.886719 214.847656 272.660156 C 214.496094 272.433594 214.125 272.242188 213.734375 272.089844 C 213.347656 271.933594 212.945312 271.820312 212.535156 271.742188 C 212.121094 271.667969 211.707031 271.632812 211.285156 271.636719 C 210.867188 271.640625 210.453125 271.683594 210.042969 271.769531 C 209.632812 271.855469 209.234375 271.976562 208.847656 272.140625 C 208.460938 272.300781 208.09375 272.5 207.746094 272.734375 C 207.398438 272.964844 207.074219 273.230469 206.777344 273.527344 C 206.484375 273.824219 206.21875 274.144531 205.984375 274.492188 C 205.75 274.839844 205.550781 275.207031 205.390625 275.59375 C 205.226562 275.980469 205.105469 276.375 205.019531 276.785156 C 204.933594 277.195312 204.890625 277.609375 204.886719 278.03125 C 204.882812 278.449219 204.917969 278.863281 204.992188 279.273438 C 205.070312 279.6875 205.1875 280.085938 205.339844 280.476562 C 205.496094 280.863281 205.683594 281.234375 205.910156 281.589844 C 206.136719 281.941406 206.398438 282.265625 206.6875 282.570312 L 227.003906 302.863281 C 217.136719 311.710938 206.609375 320.671875 195.425781 329.75 L 120.808594 267.265625 C 194.566406 218.332031 289.714844 149.429688 301.207031 112.789062 C 303.769531 110.804688 306.101562 108.578125 308.210938 106.113281 C 310.316406 103.652344 312.152344 101 313.714844 98.160156 C 315.277344 95.324219 316.535156 92.355469 317.492188 89.257812 C 318.445312 86.164062 319.078125 83.003906 319.386719 79.777344 C 350.246094 125.792969 336.601562 171.390625 299.191406 225.066406 Z M 299.191406 225.066406 " fill-opacity="1" fill-rule="nonzero"/></svg>